<svg width="61" height="61" viewBox="0 0 61 61" fill="none" xmlns="http://www.w3.org/2000/svg">
<rect width="61" height="61" rx="12" fill="#02F5AE"/>
<path d="M30.7836 47C25.5499 46.8618 21.4046 45.0419 18.1162 41.4021C17.6299 40.8723 17.2593 40.8262 16.5646 40.9184C14.6193 41.1948 13.4151 41.4943 10.6825 41.4712C10.173 41.5173 9.59403 41.3561 9.10771 41.1718C8.11191 40.8032 7.67191 39.8126 8.27401 38.9372C9.15402 37.6472 10.034 36.3571 11.3309 35.4357C12.373 34.7215 13.5077 33.8001 14.0404 33.3163C14.1099 32.5791 14.0404 31.2891 14.0404 30.0451C13.8783 23.2263 18.4172 17.375 24.7162 15.0483C31.1773 12.6756 38.3332 14.4033 42.849 19.4944C43.3816 20.0703 43.6364 20.2085 44.4006 20.0933C46.508 19.7017 48.7311 19.3331 50.8385 19.4253C53.0385 19.5174 53.5943 21.3603 52.3438 22.8808C51.1164 24.3781 49.7038 25.553 48.1985 26.7739C47.7817 27.1195 47.2953 27.3038 47.0869 27.6954C46.9017 28.0409 46.9248 28.5708 46.9711 29.0546C47.5964 37.1173 43.0806 43.2911 36.3647 45.8712C35.4616 46.2168 34.5584 46.5393 33.6089 46.7236C32.6363 46.9079 31.4552 46.9309 30.7836 47ZM33.5394 24.2169C35.6005 23.4336 37.6153 22.6043 39.1669 20.9457C40.4406 19.5865 40.2785 18.2504 38.6574 17.329C33.6089 14.3803 28.3984 14.1269 23.2341 16.8682C18.3478 19.6557 15.2909 24.1017 14.9899 29.976C14.9204 31.3582 15.1983 31.5886 16.6109 31.3121C17.653 31.1048 19.3436 30.4828 20.5478 30.1373C19.7604 30.7823 18.4172 31.5425 17.8383 32.0954C16.1478 33.754 15.9625 35.4587 17.4678 37.3016C18.232 38.2231 19.1815 39.1215 20.2236 39.6744C22.771 41.0335 25.5499 41.6555 28.4678 41.4482C32.0805 41.1948 34.4658 39.0754 35.1142 35.5278C35.2532 34.7906 35.2763 34.0074 35.2995 33.2472C35.3921 31.1509 36.4342 30.1603 38.5184 30.2294C39.0279 30.2525 39.5142 30.2294 40.0237 30.2064C43.2427 29.976 44.8406 28.1561 44.6322 25.0001C44.5164 23.2263 44.0995 22.9499 42.2237 22.9729C39.7227 23.3185 37.2216 23.8483 34.7437 24.309C33.9331 24.4703 33.6089 24.5394 33.4468 25.5069C33.2847 26.5666 32.0573 27.2116 30.9921 27.0504C29.9268 26.8891 29.2089 26.0598 29.2089 24.9771C29.2089 23.9404 30.0426 22.7656 31.0616 22.8117C32.3352 22.8577 32.9837 23.3876 33.5394 24.2169Z" fill="black"/>
</svg>
