<svg width="58" height="58" viewBox="0 0 58 58" fill="none" xmlns="http://www.w3.org/2000/svg">
<path d="M14 29.5L27.9999 22.9563V35.9213L14 29.5ZM41.5634 29.2593L27.9999 22.9563V35.9213L41.5634 29.2593Z" fill="#02F5AE"/>
<path d="M27.5634 6.26135V25.0374L14 29.5L27.5634 6.26135ZM27.5634 6.26135V25.0374L41.1268 29.2593L27.5634 6.26135ZM27.5634 51.7387V38.674L14 31.1941L27.5634 51.7387ZM27.5634 51.7387V38.674L41.1268 31.1941L27.5634 51.7387Z" fill="#02F5AE"/>
<path d="M29.9999 6.26135V25.0374L16.4365 29.2593L29.9999 6.26135ZM29.9999 6.26135V25.0374L43.5634 29.2593L29.9999 6.26135ZM29.9999 51.7387V38.674L16.4365 31.1941L29.9999 51.7387ZM29.9999 51.7387V38.674L43.5634 31.1941L29.9999 51.7387Z" fill="white"/>
<path d="M16.4365 29.2593L29.9999 22.9563V35.9213L16.4365 29.2593ZM43.5634 29.2593L29.9999 22.9563V35.9213L43.5634 29.2593Z" fill="white"/>
</svg>
