<svg width="24" height="16" viewBox="0 0 24 16" fill="none" xmlns="http://www.w3.org/2000/svg">
<g clip-path="url(#clip0_76_737)">
<path d="M9.1538 0.533331C5.07938 2.19259 4.68869 6.4 3.57241 8.35555C2.3445 10.3704 -0.33457 11.437 0.0561276 12.5037C0.391011 13.5111 3.12589 12.3852 5.24683 13.0963C7.42357 13.6889 10.2701 16.5926 14.4003 14.8741C15.3745 14.4815 16.2576 13.8707 16.9896 13.0834C17.7215 12.296 18.2852 11.3505 18.6422 10.3111C18.6608 10.2684 18.6713 10.2221 18.6729 10.175C18.6746 10.128 18.6674 10.081 18.6518 10.0369C18.6363 9.99278 18.6126 9.9524 18.5822 9.91809C18.5518 9.88378 18.5152 9.85623 18.4747 9.83704C18.4345 9.81725 18.3909 9.80615 18.3466 9.80439C18.3022 9.80262 18.258 9.81024 18.2165 9.82678C18.1749 9.84332 18.1369 9.86846 18.1046 9.90074C18.0723 9.93302 18.0463 9.97179 18.0282 10.0148C17.6058 10.9093 16.9827 11.6798 16.2138 12.2585C15.4449 12.8372 14.5538 13.2063 13.6189 13.3333C12.4096 13.499 11.1819 13.2561 10.1099 12.6392C9.0379 12.0223 8.17612 11.0626 7.64683 9.8963L7.47938 9.48148L7.31194 9.00741C10.8052 7.30451 14.4273 5.91689 18.1398 4.85926H18.3073C18.3594 4.83858 18.4168 4.83927 18.4684 4.86119C18.52 4.88311 18.5621 4.92468 18.5864 4.97778V5.15555C18.777 5.59322 18.9265 6.04974 19.0329 6.51852C19.0639 6.56449 19.1066 6.60007 19.1561 6.62107C19.2055 6.64207 19.2596 6.64761 19.3119 6.63703L20.9305 5.68889C22.7166 4.5037 23.7212 3.49629 23.498 2.96296C23.2747 2.37037 21.9352 2.37037 19.8701 2.78518L17.7492 3.25926L17.3026 3.37778C15.1576 3.96204 13.0508 4.69446 10.9957 5.57037C9.48869 6.16296 8.31659 6.75555 7.08869 7.34815C7.07565 6.34401 7.29845 5.35225 7.73696 4.46248C8.17547 3.5727 8.81588 2.81294 9.60032 2.25185C10.3771 1.69098 11.2705 1.33865 12.2038 1.22511C13.137 1.11157 14.0823 1.24022 14.9585 1.6C15.0268 1.62845 15.1021 1.63225 15.1727 1.61084C15.2433 1.58943 15.3053 1.54397 15.3492 1.48148C15.3908 1.44012 15.4217 1.38817 15.4391 1.33055C15.4566 1.27293 15.4598 1.21154 15.4486 1.1522C15.4375 1.09287 15.4122 1.03754 15.3753 0.991459C15.3383 0.94538 15.2909 0.910075 15.2375 0.888886C14.3043 0.374385 13.2768 0.0814096 12.2264 0.0302486C11.1759 -0.0209124 10.1275 0.170964 9.1538 0.59259V0.533331Z" fill="#DCF5E0"/>
<path d="M19.5733 7C21.7617 7 23.5353 8.90293 23.5353 11.2509C23.5353 13.5988 21.7617 15.5018 19.5733 15.5018C17.3849 15.5018 15.6113 13.5988 15.6113 11.2509C15.6113 8.90293 17.3857 7 19.5733 7Z" fill="#02F5AE"/>
<path d="M20.8963 12.1636C20.8963 12.4864 20.8023 12.7643 20.6145 12.9974C20.4266 13.2305 20.1826 13.3744 19.8824 13.4293V13.983C19.8824 14.0125 19.8739 14.0368 19.8569 14.0558C19.8399 14.0747 19.8182 14.0842 19.7918 14.0842H19.4095C19.3849 14.0842 19.3637 14.0742 19.3457 14.0542C19.3278 14.0341 19.3188 14.0104 19.3188 13.983V13.4293C19.1942 13.4103 19.0739 13.3776 18.9577 13.3312C18.8416 13.2848 18.7458 13.2378 18.6703 13.1904C18.5948 13.1429 18.5249 13.0923 18.4607 13.0385C18.3965 12.9847 18.3526 12.9452 18.329 12.9199C18.3054 12.8945 18.2889 12.8756 18.2795 12.8629C18.2474 12.8186 18.2455 12.7754 18.2738 12.7332L18.5655 12.306C18.5787 12.2849 18.6004 12.2723 18.6307 12.268C18.659 12.2638 18.6816 12.2733 18.6986 12.2965L18.7043 12.3029C18.9176 12.5117 19.147 12.6435 19.3925 12.6984C19.4623 12.7152 19.5322 12.7237 19.602 12.7237C19.755 12.7237 19.8895 12.6783 20.0056 12.5876C20.1217 12.4969 20.1798 12.3682 20.1798 12.2016C20.1798 12.1425 20.1656 12.0866 20.1373 12.0339C20.109 11.9812 20.0773 11.9369 20.0424 11.901C20.0075 11.8652 19.9523 11.8256 19.8767 11.7824C19.8012 11.7391 19.7389 11.7054 19.6898 11.6811C19.6407 11.6569 19.5652 11.6226 19.4633 11.5783C19.3896 11.5445 19.3316 11.5182 19.2891 11.4992C19.2466 11.4802 19.1886 11.4522 19.1149 11.4153C19.0413 11.3784 18.9823 11.3457 18.9379 11.3172C18.8936 11.2888 18.8402 11.2513 18.7779 11.2049C18.7156 11.1585 18.6651 11.1137 18.6264 11.0704C18.5877 11.0272 18.5466 10.9755 18.5032 10.9154C18.4598 10.8553 18.4263 10.7941 18.4027 10.7319C18.3791 10.6697 18.3593 10.5995 18.3432 10.5215C18.3272 10.4434 18.3191 10.3612 18.3191 10.2747C18.3191 9.98357 18.4116 9.72834 18.5967 9.50896C18.7817 9.28958 19.0224 9.14825 19.3188 9.08497V8.51544C19.3188 8.48801 19.3278 8.46428 19.3457 8.44424C19.3637 8.4242 19.3849 8.41418 19.4095 8.41418H19.7918C19.8182 8.41418 19.8399 8.42368 19.8569 8.44266C19.8739 8.46165 19.8824 8.4859 19.8824 8.51544V9.07232C19.99 9.08497 20.0943 9.10923 20.1953 9.14509C20.2963 9.18095 20.3785 9.21628 20.4417 9.25109C20.505 9.28589 20.5649 9.32544 20.6216 9.36974C20.6782 9.41404 20.715 9.44462 20.732 9.4615C20.749 9.47837 20.7632 9.49314 20.7745 9.5058C20.8066 9.54377 20.8113 9.58384 20.7886 9.62603L20.5593 10.088C20.5441 10.1196 20.5224 10.1365 20.4941 10.1386C20.4677 10.1449 20.4422 10.1376 20.4177 10.1165C20.412 10.1101 20.3983 10.0975 20.3766 10.0785C20.3549 10.0595 20.3181 10.0316 20.2661 9.99465C20.2142 9.95773 20.159 9.92398 20.1005 9.8934C20.0419 9.86281 19.9716 9.83539 19.8895 9.81113C19.8074 9.78687 19.7266 9.77474 19.6473 9.77474C19.468 9.77474 19.3217 9.8201 19.2084 9.9108C19.0951 10.0015 19.0385 10.1186 19.0385 10.262C19.0385 10.3169 19.0465 10.3675 19.0625 10.4139C19.0786 10.4603 19.1064 10.5041 19.1461 10.5452C19.1857 10.5863 19.223 10.6211 19.2579 10.6496C19.2929 10.6781 19.3457 10.7108 19.4165 10.7477C19.4873 10.7846 19.5444 10.8131 19.5879 10.8331C19.6313 10.8532 19.6974 10.8822 19.7861 10.9201C19.8862 10.9623 19.9626 10.9956 20.0155 11.0198C20.0684 11.0441 20.1401 11.081 20.2307 11.1306C20.3214 11.1801 20.3926 11.225 20.4446 11.265C20.4965 11.3051 20.555 11.3578 20.6201 11.4232C20.6853 11.4886 20.7353 11.5556 20.7702 11.6242C20.8052 11.6927 20.8349 11.7734 20.8594 11.8662C20.884 11.959 20.8963 12.0582 20.8963 12.1636Z" fill="#010101"/>
</g>
<defs>
<clipPath id="clip0_76_737">
<rect width="24" height="16" fill="white"/>
</clipPath>
</defs>
</svg>
