<svg width="60" height="61" viewBox="0 0 60 61" fill="none" xmlns="http://www.w3.org/2000/svg">
<path d="M29.8023 0.4375C46.2151 0.4375 59.5172 13.877 59.5172 30.4593C59.5172 47.0417 46.2151 60.4812 29.8023 60.4812C13.3895 60.4812 0.0874023 47.0417 0.0874023 30.4593C0.0874023 13.877 13.3953 0.4375 29.8023 0.4375Z" fill="#02F5AE"/>
<path d="M39.7227 36.9053C39.7227 39.1846 39.0182 41.1474 37.6093 42.7936C36.2004 44.4397 34.3702 45.4565 32.1187 45.8438V49.7545C32.1187 49.963 32.055 50.1343 31.9276 50.2684C31.8001 50.4025 31.6373 50.4695 31.4391 50.4695H28.5716C28.3876 50.4695 28.2283 50.3988 28.0937 50.2573C27.9592 50.1157 27.892 49.9481 27.892 49.7545V45.8438C26.9574 45.7098 26.0547 45.4789 25.1839 45.1511C24.313 44.8234 23.5944 44.4919 23.028 44.1567C22.4616 43.8215 21.9377 43.464 21.4562 43.0841C20.9748 42.7042 20.6456 42.4248 20.4686 42.2461C20.2916 42.0673 20.1677 41.9332 20.0969 41.8438C19.8561 41.531 19.842 41.2256 20.0544 40.9276L22.2421 37.9109C22.3412 37.7619 22.5041 37.6725 22.7306 37.6427C22.943 37.6129 23.1129 37.68 23.2404 37.8438L23.2829 37.8885C24.883 39.3634 26.6034 40.2945 28.4442 40.6818C28.9681 40.801 29.492 40.8606 30.016 40.8606C31.1629 40.8606 32.1718 40.5403 33.0427 39.8997C33.9135 39.2591 34.3489 38.3504 34.3489 37.1734C34.3489 36.7563 34.2427 36.3615 34.0303 35.9891C33.8179 35.6166 33.5808 35.3038 33.3188 35.0505C33.0568 34.7973 32.6427 34.5179 32.0763 34.2125C31.5099 33.9071 31.0426 33.6688 30.6744 33.4975C30.3063 33.3261 29.7398 33.0841 28.9752 32.7712C28.423 32.5328 27.9875 32.3466 27.6689 32.2125C27.3503 32.0785 26.9149 31.8811 26.3627 31.6204C25.8104 31.3597 25.3679 31.1287 25.0352 30.9276C24.7024 30.7265 24.3024 30.4621 23.8351 30.1343C23.3678 29.8066 22.989 29.49 22.6988 29.1846C22.4085 28.8792 22.1005 28.5142 21.7748 28.0896C21.4491 27.6651 21.1978 27.233 21.0208 26.7935C20.8438 26.3541 20.6951 25.8587 20.5748 25.3075C20.4544 24.7563 20.3942 24.1753 20.3942 23.5645C20.3942 21.5086 21.0881 19.706 22.4757 18.1567C23.8634 16.6073 25.6688 15.6092 27.892 15.1622V11.1399C27.892 10.9462 27.9592 10.7786 28.0937 10.6371C28.2283 10.4956 28.3876 10.4248 28.5716 10.4248H31.4391C31.6373 10.4248 31.8001 10.4918 31.9276 10.6259C32.055 10.76 32.1187 10.9313 32.1187 11.1399V15.0729C32.9259 15.1622 33.7082 15.3336 34.4658 15.5868C35.2233 15.8401 35.8393 16.0896 36.3137 16.3354C36.788 16.5812 37.2376 16.8606 37.6624 17.1734C38.0872 17.4863 38.3633 17.7023 38.4908 17.8215C38.6182 17.9406 38.7244 18.0449 38.8094 18.1343C39.0501 18.4025 39.0855 18.6855 38.9156 18.9835L37.1951 22.246C37.0818 22.4695 36.919 22.5887 36.7066 22.6036C36.5084 22.6483 36.3172 22.5961 36.1331 22.4472C36.0906 22.4025 35.988 22.3131 35.8251 22.179C35.6623 22.0449 35.3862 21.8475 34.9968 21.5868C34.6074 21.3261 34.1932 21.0878 33.7542 20.8717C33.3153 20.6557 32.7878 20.4621 32.1718 20.2907C31.5559 20.1194 30.9505 20.0338 30.3558 20.0338C29.0106 20.0338 27.9132 20.3541 27.0636 20.9946C26.214 21.6352 25.7892 22.4621 25.7892 23.4751C25.7892 23.8624 25.8494 24.22 25.9697 24.5477C26.0901 24.8755 26.299 25.1846 26.5963 25.4751C26.8937 25.7656 27.1733 26.0114 27.4353 26.2125C27.6973 26.4137 28.0937 26.6446 28.6247 26.9053C29.1557 27.166 29.5841 27.3671 29.9098 27.5086C30.2355 27.6502 30.7311 27.855 31.3966 28.1232C32.1471 28.4211 32.7205 28.6557 33.117 28.8271C33.5135 28.9984 34.0516 29.2591 34.7313 29.6092C35.411 29.9593 35.9455 30.2759 36.3349 30.5589C36.7243 30.842 37.1633 31.2144 37.6518 31.6762C38.1403 32.1381 38.5155 32.6111 38.7775 33.0952C39.0395 33.5794 39.2625 34.1492 39.4466 34.8047C39.6306 35.4602 39.7227 36.1604 39.7227 36.9053Z" fill="#010101"/>
</svg>
