<svg width="39" height="28" viewBox="0 0 39 28" fill="none" xmlns="http://www.w3.org/2000/svg">
<path d="M19.7458 28C15.2099 27.8827 11.6173 26.3386 8.76736 23.2503C8.34589 22.8007 8.02476 22.7616 7.42265 22.8398C5.73674 23.0744 4.69309 23.3285 2.3248 23.3089C1.88325 23.348 1.38149 23.2112 0.960012 23.0548C0.0969884 22.7421 -0.284349 21.9016 0.237479 21.1589C1.00015 20.0643 1.76283 18.9697 2.88676 18.1878C3.78993 17.5819 4.77338 16.8001 5.23499 16.3896C5.2952 15.7641 5.23499 14.6695 5.23499 13.614C5.0945 7.82838 9.02828 2.86366 14.4874 0.889501C20.087 -1.12375 26.2888 0.342212 30.2025 4.66191C30.6641 5.15056 30.8849 5.26784 31.5472 5.17011C33.3736 4.83783 35.3003 4.52508 37.1267 4.60327C39.0334 4.68145 39.5151 6.24514 38.4313 7.53519C37.3676 8.80569 36.1433 9.80255 34.8387 10.8385C34.4774 11.1317 34.056 11.2881 33.8753 11.6203C33.7148 11.9135 33.7348 12.3631 33.775 12.7736C34.3169 19.6147 30.4032 24.8531 24.5828 27.0422C23.8 27.3354 23.0173 27.6091 22.1944 27.7654C21.3515 27.9218 20.3279 27.9414 19.7458 28ZM22.1342 8.66887C23.9204 8.0043 25.6666 7.30064 27.0113 5.89331C28.1152 4.74009 27.9747 3.60642 26.5697 2.82457C22.1944 0.322667 17.6786 0.10766 13.2029 2.43365C8.96806 4.79873 6.31879 8.57114 6.05787 13.5554C5.99766 14.7282 6.2385 14.9236 7.46279 14.6891C8.36596 14.5132 9.83109 13.9854 10.8747 13.6922C10.1924 14.2395 9.02828 14.8845 8.52652 15.3536C7.06138 16.761 6.90083 18.2074 8.2054 19.7711C8.86772 20.5529 9.69059 21.3152 10.5938 21.7843C12.8015 22.9376 15.2099 23.4653 17.7388 23.2894C20.8698 23.0744 22.937 21.2761 23.499 18.266C23.6194 17.6405 23.6395 16.976 23.6595 16.331C23.7398 14.5523 24.643 13.7118 26.4493 13.7704C26.8909 13.79 27.3123 13.7704 27.7539 13.7509C30.5437 13.5554 31.9285 12.0113 31.7479 9.33344C31.6475 7.82838 31.2863 7.59383 29.6606 7.61338C27.493 7.90657 25.3254 8.35613 23.1778 8.74705C22.4754 8.88388 22.1944 8.94252 22.0539 9.76345C21.9134 10.6626 20.8497 11.2099 19.9265 11.073C19.0032 10.9362 18.3811 10.2326 18.3811 9.31389C18.3811 8.43431 19.1036 7.43746 19.9867 7.47655C21.0905 7.51565 21.6525 7.96521 22.1342 8.66887Z" fill="white"/>
</svg>
