<svg width="58" height="58" viewBox="0 0 58 58" fill="none" xmlns="http://www.w3.org/2000/svg">
<path fill-rule="evenodd" clip-rule="evenodd" d="M45.6861 6.31723L39.8905 7.87014C39.0903 8.08456 38.2678 7.60968 38.0534 6.80948C37.839 6.00929 38.3139 5.18678 39.1141 4.97237L46.3585 3.03122C47.1587 2.81681 47.9812 3.29169 48.1956 4.09188L50.0073 10.8534C50.2218 11.6536 49.7469 12.4761 48.9467 12.6905C48.1465 12.9049 47.324 12.43 47.1096 11.6298L45.6861 6.31723Z" fill="#02F5AE"/>
<rect x="6" y="29" width="12" height="26" rx="1" fill="white"/>
<rect x="23" y="38" width="12" height="17" rx="1" fill="white"/>
<path d="M40 23C40 22.4477 40.4477 22 41 22H51C51.5523 22 52 22.4477 52 23V54C52 54.5523 51.5523 55 51 55H41C40.4477 55 40 54.5523 40 54V23Z" fill="white"/>
<path d="M6 23L12 16L29 27.5L46 6" stroke="#02F5AE" stroke-width="3" stroke-linejoin="round"/>
</svg>
