<svg width="14" height="13" viewBox="0 0 14 13" fill="none" xmlns="http://www.w3.org/2000/svg">
<g clip-path="url(#clip0_1_1014)">
<path d="M0.350085 11.3243C0.543432 11.3243 0.700171 11.1676 0.700171 10.9742V0.92429C0.700171 0.833241 0.718281 0.743082 0.753468 0.658963C0.788655 0.574844 0.840229 0.498412 0.905246 0.43403C0.970263 0.369648 1.04745 0.318577 1.1324 0.283734C1.21735 0.248891 1.30839 0.230957 1.40034 0.230957H7.70188C7.88758 0.230957 8.06567 0.304004 8.19698 0.43403C8.32828 0.564055 8.40205 0.740407 8.40205 0.92429V5.07061C8.40205 5.844 9.02901 6.47096 9.80239 6.47096V6.47096C10.1738 6.47096 10.53 6.61705 10.7926 6.8771C11.0552 7.13715 11.2027 7.48986 11.2027 7.85762V10.631C11.2027 10.8148 11.2765 10.9912 11.4078 11.1212C11.5391 11.2512 11.7172 11.3243 11.9029 11.3243C12.0886 11.3243 12.2667 11.2512 12.398 11.1212C12.5293 10.9912 12.6031 10.8148 12.6031 10.631V7.17796C12.6031 6.40458 11.9761 5.77762 11.2027 5.77762V5.77762C11.017 5.77762 10.8389 5.70458 10.7076 5.57455C10.5763 5.44453 10.5026 5.26817 10.5026 5.08429V3.07554C10.5026 2.7701 10.3805 2.47734 10.1634 2.26243L9.84226 1.9444C9.56701 1.67184 9.56696 1.22709 9.84215 0.95447V0.95447C10.1136 0.685523 10.5511 0.685475 10.8226 0.954362L13.7982 3.90086C13.9295 4.03086 14.0039 4.20722 14.0034 4.39096V10.631C14.0034 11.1826 13.7821 11.7117 13.3882 12.1017C12.9943 12.4918 12.46 12.711 11.9029 12.711C11.3458 12.711 10.8115 12.4918 10.4176 12.1017C10.0237 11.7117 9.80239 11.1826 9.80239 10.631V8.5578C9.80239 8.1711 9.48892 7.85762 9.10222 7.85762V7.85762C8.71553 7.85762 8.40205 8.1711 8.40205 8.5578V10.9742C8.40205 11.1676 8.55879 11.3243 8.75214 11.3243V11.3243C8.94548 11.3243 9.10222 11.481 9.10222 11.6744V12.0176C9.10222 12.4005 8.79181 12.711 8.40889 12.711H0.693333C0.310415 12.711 0 12.4005 0 12.0176V11.6744C0 11.481 0.156739 11.3243 0.350085 11.3243V11.3243ZM4.18051 1.61762C3.03176 1.61762 2.10051 2.54887 2.10051 3.69762V3.69762C2.10051 4.84638 3.03176 5.77762 4.18051 5.77762H4.92171C6.07046 5.77762 7.00171 4.84638 7.00171 3.69762V3.69762C7.00171 2.54887 6.07046 1.61762 4.92171 1.61762H4.18051Z" fill="#02F5AE"/>
</g>
<defs>
<clipPath id="clip0_1_1014">
<rect width="14" height="13" fill="white"/>
</clipPath>
</defs>
</svg>
