<svg width="305" height="81" viewBox="0 0 305 81" fill="none" xmlns="http://www.w3.org/2000/svg">
<mask id="path-1-inside-1_446_143" fill="white">
<path fill-rule="evenodd" clip-rule="evenodd" d="M14.5055 33.9302C8.94259 32.3407 3.92423 29.2513 0 25V56.5V57H0.0311256C1.6884 70.3002 69.3164 81 152.5 81C235.684 81 303.312 70.3002 304.969 57H305V56.5V25L304.051 25.9487C302.028 27.9721 299.72 29.6892 297.201 31.0458C295.405 32.0127 293.514 32.79 291.557 33.3655L277.5 37.5L253 42L228.5 44.5L205 46.5L152 48L102 46.5L78.5 45L54 42.5L27 37.5L14.5055 33.9302Z"/>
</mask>
<path d="M0 25L0.734803 24.3217L-1 22.4423V25H0ZM14.5055 33.9302L14.2308 34.8917L14.2308 34.8917L14.5055 33.9302ZM0 57H-1V58H0V57ZM0.0311256 57L1.02345 56.8764L0.914253 56H0.0311256V57ZM304.969 57V56H304.086L303.977 56.8763L304.969 57ZM305 57V58H306V57H305ZM305 25H306V22.5858L304.293 24.2929L305 25ZM304.051 25.9487L304.758 26.6558L304.758 26.6558L304.051 25.9487ZM297.201 31.0458L296.726 30.1654L296.726 30.1654L297.201 31.0458ZM291.557 33.3655L291.84 34.3248L291.84 34.3248L291.557 33.3655ZM277.5 37.5L277.681 38.4835L277.732 38.4741L277.782 38.4594L277.5 37.5ZM253 42L253.102 42.9948L253.141 42.9908L253.181 42.9835L253 42ZM228.5 44.5L228.585 45.4964L228.593 45.4957L228.602 45.4948L228.5 44.5ZM205 46.5L205.028 47.4996L205.057 47.4988L205.085 47.4964L205 46.5ZM152 48L151.97 48.9996L151.999 49.0004L152.028 48.9996L152 48ZM102 46.5L101.936 47.498L101.953 47.499L101.97 47.4996L102 46.5ZM78.5 45L78.3985 45.9948L78.4174 45.9968L78.4363 45.998L78.5 45ZM54 42.5L53.8179 43.4833L53.858 43.4907L53.8985 43.4948L54 42.5ZM27 37.5L26.7253 38.4615L26.7711 38.4746L26.8179 38.4833L27 37.5ZM-0.734803 25.6783C3.3139 30.0644 8.49142 33.2519 14.2308 34.8917L14.7803 32.9686C9.39375 31.4296 4.53457 28.4381 0.734803 24.3217L-0.734803 25.6783ZM1 56.5V25H-1V56.5H1ZM1 57V56.5H-1V57H1ZM0.0311256 56H0V58H0.0311256V56ZM152.5 80C110.944 80 73.2957 77.327 45.8489 72.9998C32.1187 70.8351 20.9832 68.2628 13.1987 65.4216C9.30235 63.9995 6.29594 62.5279 4.23152 61.0388C2.14295 59.5323 1.1792 58.1263 1.02345 56.8764L-0.9612 57.1236C-0.702628 59.1988 0.809521 61.0365 3.06151 62.6609C5.33765 64.3027 8.53645 65.849 12.513 67.3004C20.4743 70.2061 31.7556 72.8025 45.5375 74.9754C73.1149 79.3231 110.872 82 152.5 82V80ZM303.977 56.8763C303.821 58.1263 302.857 59.5323 300.768 61.0388C298.704 62.5279 295.698 63.9995 291.801 65.4216C284.017 68.2628 272.881 70.8351 259.151 72.9998C231.704 77.327 194.056 80 152.5 80V82C194.128 82 231.885 79.3231 259.463 74.9754C273.244 72.8025 284.526 70.2061 292.487 67.3004C296.464 65.849 299.662 64.3027 301.938 62.6609C304.19 61.0365 305.703 59.1988 305.961 57.1237L303.977 56.8763ZM305 56H304.969V58H305V56ZM304 56.5V57H306V56.5H304ZM304 25V56.5H306V25H304ZM304.758 26.6558L305.707 25.7071L304.293 24.2929L303.344 25.2416L304.758 26.6558ZM297.675 31.9263C300.28 30.5235 302.666 28.748 304.758 26.6558L303.344 25.2416C301.39 27.1961 299.16 28.8549 296.726 30.1654L297.675 31.9263ZM291.84 34.3248C293.863 33.7298 295.818 32.926 297.675 31.9263L296.726 30.1654C294.992 31.0993 293.165 31.8503 291.275 32.4061L291.84 34.3248ZM277.782 38.4594L291.84 34.3248L291.275 32.4061L277.218 36.5406L277.782 38.4594ZM253.181 42.9835L277.681 38.4835L277.319 36.5165L252.819 41.0165L253.181 42.9835ZM228.602 45.4948L253.102 42.9948L252.898 41.0052L228.398 43.5052L228.602 45.4948ZM205.085 47.4964L228.585 45.4964L228.415 43.5036L204.915 45.5036L205.085 47.4964ZM152.028 48.9996L205.028 47.4996L204.972 45.5004L151.972 47.0004L152.028 48.9996ZM101.97 47.4996L151.97 48.9996L152.03 47.0004L102.03 45.5004L101.97 47.4996ZM78.4363 45.998L101.936 47.498L102.064 45.502L78.5637 44.002L78.4363 45.998ZM53.8985 43.4948L78.3985 45.9948L78.6015 44.0052L54.1015 41.5052L53.8985 43.4948ZM26.8179 38.4833L53.8179 43.4833L54.1821 41.5167L27.1821 36.5167L26.8179 38.4833ZM14.2308 34.8917L26.7253 38.4615L27.2747 36.5385L14.7803 32.9686L14.2308 34.8917Z" fill="#02F5AE" mask="url(#path-1-inside-1_446_143)"/>
<path d="M304.5 24.5C304.5 25.9651 303.576 27.4877 301.593 29.0443C299.619 30.5943 296.676 32.1114 292.838 33.5691C285.168 36.4825 274.04 39.1157 260.254 41.3304C232.691 45.7587 194.594 48.5 152.5 48.5C110.406 48.5 72.3092 45.7587 44.7455 41.3304C30.9597 39.1157 19.8319 36.4825 12.1617 33.5691C8.32397 32.1114 5.38127 30.5943 3.40702 29.0443C1.42427 27.4877 0.5 25.9651 0.5 24.5C0.5 23.0349 1.42427 21.5123 3.40702 19.9557C5.38127 18.4057 8.32397 16.8886 12.1617 15.4309C19.8319 12.5175 30.9597 9.88432 44.7455 7.66955C72.3092 3.2413 110.406 0.5 152.5 0.5C194.594 0.5 232.691 3.2413 260.254 7.66955C274.04 9.88432 285.168 12.5175 292.838 15.4309C296.676 16.8886 299.619 18.4057 301.593 19.9557C303.576 21.5123 304.5 23.0349 304.5 24.5Z" stroke="#02F5AE"/>
<path d="M280.5 25.5C280.5 26.3621 279.813 27.3441 278.133 28.4023C276.483 29.4415 274.018 30.4622 270.795 31.4443C264.358 33.4062 255.017 35.1797 243.446 36.6714C220.309 39.6538 188.332 41.5 153 41.5C117.668 41.5 85.6906 39.6538 62.5543 36.6714C50.9825 35.1797 41.6421 33.4062 35.2046 31.4443C31.9822 30.4622 29.5167 29.4415 27.867 28.4023C26.1873 27.3441 25.5 26.3621 25.5 25.5C25.5 24.6379 26.1873 23.6559 27.867 22.5977C29.5167 21.5585 31.9822 20.5378 35.2046 19.5557C41.6421 17.5938 50.9825 15.8203 62.5543 14.3286C85.6906 11.3462 117.668 9.5 153 9.5C188.332 9.5 220.309 11.3462 243.446 14.3286C255.017 15.8203 264.358 17.5938 270.795 19.5557C274.018 20.5378 276.483 21.5585 278.133 22.5977C279.813 23.6559 280.5 24.6379 280.5 25.5Z" stroke="#02F5AE"/>
</svg>
