<svg width="46" height="46" viewBox="0 0 46 46" fill="none" xmlns="http://www.w3.org/2000/svg">
<g clip-path="url(#clip0_2_380)">
<path d="M45.1749 15.2174L30.7999 0.842385C30.4495 0.492501 30.0146 0.238982 29.5375 0.106349C29.0603 -0.026283 28.557 -0.0335403 28.0762 0.0852794C27.5955 0.204099 27.1535 0.444975 26.7931 0.784608C26.4326 1.12424 26.166 1.55114 26.0188 2.02401C25.3676 4.1357 24.2421 5.97139 22.576 7.63601C20.3508 9.85982 17.4528 11.5446 14.3866 13.3256C11.1321 15.2116 7.76975 17.1666 5.01406 19.9209C2.67238 22.2654 1.07819 24.8731 0.143814 27.9004C-0.0108039 28.4005 -0.0261201 28.9333 0.0995141 29.4414C0.225148 29.9495 0.486975 30.4137 0.856814 30.7841L15.2318 45.1591C15.5825 45.5089 16.0175 45.7623 16.4949 45.8948C16.9722 46.0272 17.4756 46.0342 17.9564 45.9151C18.4372 45.796 18.8791 45.5548 19.2394 45.2148C19.5997 44.8749 19.8661 44.4477 20.0129 43.9746C20.6656 41.8629 21.7911 40.0272 23.4586 38.3626C25.6824 36.1388 28.579 34.4569 31.6481 32.6773C34.8997 30.7884 38.2634 28.8334 41.0177 26.0791C43.3594 23.7374 44.9536 21.1269 45.8894 18.0996C46.0432 17.5996 46.058 17.0671 45.9321 16.5593C45.8063 16.0516 45.5445 15.5877 45.1749 15.2174ZM17.2659 43.125L2.89088 28.75C6.97625 15.5236 24.6834 16.1014 28.7659 2.87501L43.1437 17.25C39.0569 30.4736 21.3498 29.8986 17.2659 43.125Z" fill="white"/>
<path d="M28.1364 21.4188C27.6678 21.0263 27.1963 20.7589 26.7219 20.6267C26.2609 20.494 25.7802 20.4429 25.3016 20.4758C24.809 20.5151 24.3248 20.626 23.8641 20.8049C23.37 20.9952 22.8838 21.2052 22.4065 21.4346C21.6529 20.5591 20.8808 19.6998 20.0907 18.8571C20.4386 18.5423 20.7764 18.3828 21.1013 18.3713C21.4276 18.3569 21.741 18.3914 22.0385 18.4661C22.3418 18.5423 22.6193 18.607 22.8751 18.6573C22.9939 18.6844 23.1175 18.683 23.2356 18.6533C23.3538 18.6235 23.4632 18.5663 23.5551 18.4863C23.6567 18.4007 23.7394 18.2949 23.7978 18.1756C23.8562 18.0563 23.8891 17.9261 23.8943 17.7934C23.9087 17.5102 23.8023 17.2342 23.5651 16.9654C23.283 16.629 22.8909 16.4035 22.4583 16.3286C22.015 16.2505 21.5607 16.2607 21.1214 16.3588C20.6671 16.4623 20.2345 16.6333 19.8248 16.8748C19.4151 17.1163 19.0859 17.3636 18.8415 17.6051L18.5612 17.3406C18.5091 17.2923 18.448 17.2547 18.3814 17.2301C18.3149 17.2054 18.244 17.1941 18.1731 17.1968C18.0975 17.1972 18.023 17.2145 17.955 17.2476C17.8871 17.2807 17.8275 17.3287 17.7806 17.388C17.7305 17.4428 17.6927 17.5077 17.6699 17.5784C17.6471 17.6491 17.6397 17.7239 17.6484 17.7977C17.6529 17.8673 17.6713 17.9352 17.7027 17.9974C17.7341 18.0597 17.7777 18.115 17.831 18.1599C17.9244 18.239 18.0178 18.3166 18.1113 18.3986C17.7433 18.8428 17.44 19.3329 17.2013 19.8504C16.9717 20.3336 16.8236 20.8514 16.7629 21.3828C16.7068 21.8859 16.76 22.3459 16.9138 22.7729C17.0676 23.2027 17.3523 23.5678 17.7677 23.9128C18.4448 24.4749 19.2411 24.7135 20.1655 24.6603C21.0869 24.6043 22.0802 24.3297 23.1483 23.7561C23.9964 24.7365 24.8474 25.7097 25.697 26.6139C25.3376 26.9172 25.0228 27.0911 24.7453 27.1472C24.4985 27.2064 24.2407 27.2014 23.9964 27.1328C23.7749 27.0636 23.5647 26.9624 23.3725 26.8324C23.192 26.7061 23.0022 26.5937 22.8047 26.496C22.6193 26.404 22.4281 26.3523 22.2326 26.3494C22.0371 26.3465 21.8286 26.4414 21.5986 26.6383C21.3629 26.8439 21.245 27.0825 21.245 27.3513C21.245 27.6187 21.3686 27.8904 21.6101 28.1649C21.8545 28.4395 22.1722 28.6709 22.556 28.8535C22.9398 29.0361 23.374 29.1511 23.8512 29.1827C24.3659 29.2134 24.8812 29.133 25.362 28.9469C25.8953 28.7529 26.4229 28.4021 26.9433 27.8803C27.1934 28.1247 27.4464 28.3576 27.698 28.5818C27.7512 28.6287 27.8135 28.6641 27.881 28.6858C27.9485 28.7076 28.0198 28.7153 28.0904 28.7083C28.1659 28.7047 28.2397 28.6846 28.3067 28.6497C28.3738 28.6147 28.4324 28.5655 28.4785 28.5056C28.5287 28.4484 28.5666 28.3815 28.5899 28.3091C28.6131 28.2366 28.6212 28.1602 28.6136 28.0844C28.6096 28.0167 28.5915 27.9506 28.5606 27.8902C28.5297 27.8298 28.4865 27.7765 28.434 27.7337C28.1759 27.5271 27.9233 27.3138 27.6764 27.094C28.1062 26.5664 28.4512 26.0101 28.7071 25.4596C28.963 24.9061 29.1139 24.3728 29.1642 23.8783C29.2185 23.4202 29.1598 22.9558 28.9931 22.5256C28.8321 22.1131 28.5461 21.7594 28.1364 21.4188ZM20.0993 22.3934C19.9011 22.4039 19.7029 22.372 19.518 22.2999C19.3331 22.2278 19.1657 22.117 19.027 21.9751C18.8948 21.8478 18.7982 21.6883 18.7466 21.5122C18.6858 21.3181 18.6667 21.1133 18.6906 20.9113C18.7107 20.6957 18.7754 20.47 18.8875 20.2429C18.9939 20.0158 19.152 19.7886 19.3533 19.5687C20.1058 20.3263 20.8345 21.1073 21.5383 21.9104C20.9863 22.2137 20.5061 22.3761 20.0993 22.3934ZM26.88 25.2713C26.7506 25.5099 26.6026 25.7226 26.4286 25.9081C25.5973 25.0578 24.7919 24.1824 24.0136 23.2832C24.2192 23.1912 24.4348 23.0949 24.6677 22.9971C24.9006 22.8994 25.1335 22.8347 25.3663 22.7944C25.605 22.7585 25.8407 22.7686 26.0765 22.8246C26.3093 22.8836 26.5307 23.0101 26.7363 23.2099C26.939 23.4126 27.0669 23.6224 27.1186 23.8496C27.1747 24.0796 27.1776 24.3124 27.1388 24.5511C27.093 24.8038 27.0056 25.0472 26.88 25.2713ZM21.1717 31.8838H21.1688C20.2579 32.5699 19.3936 33.3157 18.5813 34.1162C17.8198 34.8753 17.1177 35.6918 16.4811 36.5585L15.4979 37.9011L15.5008 37.904C15.4115 38.0426 15.3722 38.2074 15.3895 38.3714C15.4067 38.5353 15.4795 38.6884 15.5956 38.8053C15.7313 38.94 15.9148 39.0155 16.106 39.0155C16.2971 39.0155 16.4806 38.94 16.6163 38.8053C16.6579 38.7623 16.6937 38.714 16.7226 38.6616L17.6412 37.4038C18.2105 36.6261 18.8688 35.8599 19.5976 35.1325C20.3674 34.368 21.1908 33.6594 22.0615 33.0122L22.0586 33.0093C22.0845 32.9892 22.109 32.9734 22.132 32.9504C22.2612 32.82 22.3357 32.6451 22.3401 32.4616C22.3445 32.2781 22.2786 32.0999 22.1557 31.9634C22.0329 31.827 21.8625 31.7427 21.6796 31.7279C21.4966 31.7131 21.3149 31.7689 21.1717 31.8838ZM26.4344 11.0903C25.6826 11.8421 24.8675 12.5192 24.0223 13.1646C23.9231 13.2186 23.8379 13.295 23.7733 13.3876C23.7088 13.4802 23.6667 13.5866 23.6504 13.6983C23.6341 13.81 23.644 13.924 23.6793 14.0312C23.7147 14.1384 23.7745 14.236 23.8541 14.3161C24.1286 14.5935 24.5728 14.5993 24.8589 14.3362L24.8646 14.3391C25.7631 13.6491 26.6385 12.9188 27.4507 12.1066C28.2118 11.3481 28.9139 10.5326 29.5509 9.66719L30.5341 8.31882L30.5313 8.31594C30.6486 8.17326 30.707 7.99116 30.6945 7.80686C30.682 7.62256 30.5996 7.44998 30.4642 7.32442C30.3287 7.19885 30.1503 7.12977 29.9656 7.13131C29.7809 7.13285 29.6038 7.20488 29.4704 7.33269C29.4202 7.38546 29.3776 7.44497 29.3439 7.5095L28.3894 8.81763C27.7972 9.62442 27.1436 10.3842 26.4344 11.0903Z" fill="#02F5AE"/>
</g>
<defs>
<clipPath id="clip0_2_380">
<rect width="46" height="46" fill="white"/>
</clipPath>
</defs>
</svg>
