<svg width="24" height="16" viewBox="0 0 24 16" fill="none" xmlns="http://www.w3.org/2000/svg">
<g clip-path="url(#clip0_81_788)">
<path d="M9.1538 0.533331C5.07938 2.19259 4.68869 6.4 3.57241 8.35555C2.3445 10.3704 -0.33457 11.437 0.0561276 12.5037C0.391011 13.5111 3.12589 12.3852 5.24683 13.0963C7.42357 13.6889 10.2701 16.5926 14.4003 14.8741C15.3745 14.4815 16.2576 13.8707 16.9896 13.0834C17.7215 12.296 18.2852 11.3505 18.6422 10.3111C18.6608 10.2684 18.6713 10.2221 18.6729 10.175C18.6746 10.128 18.6674 10.081 18.6518 10.0369C18.6363 9.99278 18.6126 9.9524 18.5822 9.91809C18.5518 9.88378 18.5152 9.85623 18.4747 9.83704C18.4345 9.81725 18.3909 9.80615 18.3466 9.80439C18.3022 9.80262 18.258 9.81024 18.2165 9.82678C18.1749 9.84332 18.1369 9.86846 18.1046 9.90074C18.0723 9.93302 18.0463 9.97179 18.0282 10.0148C17.6058 10.9093 16.9827 11.6798 16.2138 12.2585C15.4449 12.8372 14.5538 13.2063 13.6189 13.3333C12.4096 13.499 11.1819 13.2561 10.1099 12.6392C9.0379 12.0223 8.17612 11.0626 7.64683 9.8963L7.47938 9.48148L7.31194 9.00741C10.8052 7.30451 14.4273 5.91689 18.1398 4.85926H18.3073C18.3594 4.83858 18.4168 4.83927 18.4684 4.86119C18.52 4.88311 18.5621 4.92468 18.5864 4.97778V5.15555C18.777 5.59322 18.9265 6.04974 19.0329 6.51852C19.0639 6.56449 19.1066 6.60007 19.1561 6.62107C19.2055 6.64207 19.2596 6.64761 19.3119 6.63703L20.9305 5.68889C22.7166 4.5037 23.7212 3.49629 23.498 2.96296C23.2747 2.37037 21.9352 2.37037 19.8701 2.78518L17.7492 3.25926L17.3026 3.37778C15.1576 3.96204 13.0508 4.69446 10.9957 5.57037C9.48869 6.16296 8.31659 6.75555 7.08869 7.34815C7.07565 6.34401 7.29845 5.35225 7.73696 4.46248C8.17547 3.5727 8.81588 2.81294 9.60032 2.25185C10.3771 1.69098 11.2705 1.33865 12.2038 1.22511C13.137 1.11157 14.0823 1.24022 14.9585 1.6C15.0268 1.62845 15.1021 1.63225 15.1727 1.61084C15.2433 1.58943 15.3053 1.54397 15.3492 1.48148C15.3908 1.44012 15.4217 1.38817 15.4391 1.33055C15.4566 1.27293 15.4598 1.21154 15.4486 1.1522C15.4375 1.09287 15.4122 1.03754 15.3753 0.991459C15.3383 0.94538 15.2909 0.910075 15.2375 0.888886C14.3043 0.374385 13.2768 0.0814096 12.2264 0.0302486C11.1759 -0.0209124 10.1275 0.170964 9.1538 0.59259V0.533331Z" fill="#DCF5E0"/>
</g>
<defs>
<clipPath id="clip0_81_788">
<rect width="24" height="16" fill="white"/>
</clipPath>
</defs>
</svg>
