<svg width="17" height="10" viewBox="0 0 17 10" fill="none" xmlns="http://www.w3.org/2000/svg">
<path d="M12.348 6.696C12.556 6.696 12.756 6.664 12.948 6.6C13.14 6.536 13.308 6.432 13.452 6.288C13.596 6.144 13.712 5.96 13.8 5.736C13.888 5.504 13.932 5.224 13.932 4.896C13.932 4.576 13.888 4.304 13.8 4.08C13.712 3.848 13.596 3.66 13.452 3.516C13.308 3.372 13.14 3.268 12.948 3.204C12.756 3.14 12.556 3.108 12.348 3.108C12.124 3.108 11.912 3.156 11.712 3.252C11.52 3.34 11.336 3.464 11.16 3.624C10.992 3.784 10.828 3.976 10.668 4.2C10.508 4.416 10.348 4.648 10.188 4.896C10.348 5.152 10.508 5.392 10.668 5.616C10.828 5.832 10.992 6.02 11.16 6.18C11.336 6.34 11.52 6.468 11.712 6.564C11.912 6.652 12.124 6.696 12.348 6.696ZM5.172 6.696C5.396 6.696 5.604 6.652 5.796 6.564C5.988 6.468 6.172 6.34 6.348 6.18C6.524 6.02 6.692 5.832 6.852 5.616C7.012 5.392 7.172 5.152 7.332 4.896C7.172 4.648 7.012 4.416 6.852 4.2C6.692 3.976 6.524 3.784 6.348 3.624C6.172 3.464 5.988 3.34 5.796 3.252C5.604 3.156 5.396 3.108 5.172 3.108C4.964 3.108 4.764 3.14 4.572 3.204C4.38 3.268 4.208 3.372 4.056 3.516C3.912 3.66 3.796 3.848 3.708 4.08C3.62 4.304 3.576 4.576 3.576 4.896C3.576 5.224 3.62 5.504 3.708 5.736C3.796 5.96 3.912 6.144 4.056 6.288C4.208 6.432 4.38 6.536 4.572 6.6C4.764 6.664 4.964 6.696 5.172 6.696ZM12.48 0.491999C13.024 0.491999 13.54 0.599999 14.028 0.816C14.516 1.032 14.944 1.336 15.312 1.728C15.688 2.12 15.984 2.584 16.2 3.12C16.416 3.656 16.524 4.248 16.524 4.896C16.524 5.544 16.416 6.14 16.2 6.684C15.984 7.22 15.688 7.684 15.312 8.076C14.944 8.468 14.516 8.772 14.028 8.988C13.54 9.204 13.024 9.312 12.48 9.312C12.04 9.312 11.64 9.256 11.28 9.144C10.92 9.032 10.588 8.88 10.284 8.688C9.988 8.496 9.712 8.272 9.456 8.016C9.208 7.752 8.976 7.472 8.76 7.176C8.544 7.472 8.308 7.752 8.052 8.016C7.804 8.272 7.528 8.496 7.224 8.688C6.92 8.88 6.588 9.032 6.228 9.144C5.868 9.256 5.468 9.312 5.028 9.312C4.484 9.312 3.968 9.204 3.48 8.988C2.992 8.772 2.56 8.468 2.184 8.076C1.816 7.684 1.524 7.22 1.308 6.684C1.092 6.14 0.984 5.544 0.984 4.896C0.984 4.248 1.092 3.656 1.308 3.12C1.524 2.584 1.816 2.12 2.184 1.728C2.56 1.336 2.992 1.032 3.48 0.816C3.968 0.599999 4.484 0.491999 5.028 0.491999C5.468 0.491999 5.868 0.547999 6.228 0.659999C6.588 0.771999 6.92 0.923999 7.224 1.116C7.528 1.308 7.804 1.536 8.052 1.8C8.308 2.056 8.544 2.332 8.76 2.628C8.976 2.332 9.208 2.056 9.456 1.8C9.712 1.536 9.988 1.308 10.284 1.116C10.588 0.923999 10.92 0.771999 11.28 0.659999C11.64 0.547999 12.04 0.491999 12.48 0.491999Z" fill="white"/>
</svg>
