<svg width="18" height="20" viewBox="0 0 18 20" fill="none" xmlns="http://www.w3.org/2000/svg">
<path d="M13.0898 0.847656C11.7832 0.283203 10.3926 0 8.99999 0C7.60741 0 6.21288 0.283203 4.90819 0.849609L0.249989 2.86523V8.61133C0.246083 9.91992 0.470692 11.2168 0.910145 12.4473C1.33593 13.6523 1.94725 14.7813 2.72069 15.7949C3.50194 16.8281 4.4453 17.7266 5.51171 18.457C6.57225 19.1816 7.7539 19.7051 8.99804 20C10.2402 19.7031 11.418 19.1836 12.4746 18.4629C13.541 17.7344 14.4844 16.834 15.2656 15.8008C16.0449 14.7852 16.6601 13.6523 17.0898 12.4434C17.5293 11.2129 17.7519 9.91602 17.75 8.60742V2.86523L13.0898 0.847656ZM13.8594 7.58984L11.7148 9.67969C11.6777 9.71484 11.6621 9.76758 11.6699 9.81836L12.1758 12.7695C12.2207 13.0254 11.9512 13.2188 11.7226 13.0996L9.07225 11.707C9.02733 11.6836 8.97265 11.6836 8.92772 11.707L6.27733 13.0996C6.04882 13.2207 5.77929 13.0254 5.82421 12.7695L6.33007 9.81836C6.33788 9.76758 6.32225 9.7168 6.28515 9.67969L4.14061 7.58984C3.95507 7.4082 4.05663 7.09375 4.31444 7.05664L7.27733 6.62695C7.32811 6.61914 7.37304 6.58789 7.39452 6.54102L8.71874 3.85547C8.83397 3.62305 9.16405 3.62305 9.27929 3.85547L10.6035 6.54102C10.6269 6.58789 10.6699 6.61914 10.7207 6.62695L13.6836 7.05664C13.9414 7.09375 14.0449 7.4082 13.8594 7.58984Z" fill="#02F5AE"/>
</svg>
