<svg width="30" height="30" viewBox="0 0 30 30" fill="none" xmlns="http://www.w3.org/2000/svg">
<rect width="30" height="30" rx="15" fill="white"/>
<g clip-path="url(#clip0_76_666)">
<path d="M12.1538 7.53333C8.07938 9.19259 7.68869 13.4 6.57241 15.3556C5.3445 17.3704 2.66543 18.437 3.05613 19.5037C3.39101 20.5111 6.12589 19.3852 8.24683 20.0963C10.4236 20.6889 13.2701 23.5926 17.4003 21.8741C18.3745 21.4815 19.2576 20.8707 19.9896 20.0834C20.7215 19.296 21.2852 18.3505 21.6422 17.3111C21.6608 17.2684 21.6713 17.2221 21.6729 17.175C21.6746 17.128 21.6674 17.081 21.6518 17.0369C21.6363 16.9928 21.6126 16.9524 21.5822 16.9181C21.5518 16.8838 21.5152 16.8562 21.4747 16.837C21.4345 16.8172 21.3909 16.8061 21.3466 16.8044C21.3022 16.8026 21.258 16.8102 21.2165 16.8268C21.1749 16.8433 21.1369 16.8685 21.1046 16.9007C21.0723 16.933 21.0463 16.9718 21.0282 17.0148C20.6058 17.9093 19.9827 18.6798 19.2138 19.2585C18.4449 19.8372 17.5538 20.2063 16.6189 20.3333C15.4096 20.499 14.1819 20.2561 13.1099 19.6392C12.0379 19.0223 11.1761 18.0626 10.6468 16.8963L10.4794 16.4815L10.3119 16.0074C13.8052 14.3045 17.4273 12.9169 21.1398 11.8593H21.3073C21.3594 11.8386 21.4168 11.8393 21.4684 11.8612C21.52 11.8831 21.5621 11.9247 21.5864 11.9778V12.1556C21.777 12.5932 21.9265 13.0497 22.0329 13.5185C22.0639 13.5645 22.1066 13.6001 22.1561 13.6211C22.2055 13.6421 22.2596 13.6476 22.3119 13.637L23.9305 12.6889C25.7166 11.5037 26.7212 10.4963 26.498 9.96296C26.2747 9.37037 24.9352 9.37037 22.8701 9.78518L20.7492 10.2593L20.3026 10.3778C18.1576 10.962 16.0508 11.6945 13.9957 12.5704C12.4887 13.163 11.3166 13.7556 10.0887 14.3481C10.0756 13.344 10.2984 12.3523 10.737 11.4625C11.1755 10.5727 11.8159 9.81294 12.6003 9.25185C13.3771 8.69098 14.2705 8.33865 15.2038 8.22511C16.137 8.11157 17.0823 8.24022 17.9585 8.6C18.0268 8.62845 18.1021 8.63225 18.1727 8.61084C18.2433 8.58943 18.3053 8.54397 18.3492 8.48148C18.3908 8.44012 18.4217 8.38817 18.4391 8.33055C18.4566 8.27293 18.4598 8.21154 18.4486 8.1522C18.4375 8.09287 18.4122 8.03754 18.3753 7.99146C18.3383 7.94538 18.2909 7.91007 18.2375 7.88889C17.3043 7.37439 16.2768 7.08141 15.2264 7.03025C14.1759 6.97909 13.1275 7.17096 12.1538 7.59259V7.53333Z" fill="black"/>
<path d="M22.25 14C24.5975 14 26.5 15.9029 26.5 18.2509C26.5 20.5988 24.5975 22.5018 22.25 22.5018C19.9025 22.5018 18 20.5988 18 18.2509C18 15.9029 19.9034 14 22.25 14Z" fill="white"/>
<path d="M23.6424 19.1636C23.6424 19.4863 23.5484 19.7643 23.3606 19.9973C23.1727 20.2304 22.9287 20.3744 22.6285 20.4292V20.983C22.6285 21.0125 22.62 21.0367 22.603 21.0557C22.586 21.0747 22.5643 21.0842 22.5379 21.0842H22.1555C22.131 21.0842 22.1098 21.0742 22.0918 21.0541C22.0739 21.0341 22.0649 21.0104 22.0649 20.983V20.4292C21.9403 20.4103 21.82 20.3776 21.7038 20.3312C21.5877 20.2847 21.4919 20.2378 21.4164 20.1904C21.3409 20.1429 21.271 20.0923 21.2068 20.0385C21.1426 19.9847 21.0987 19.9451 21.0751 19.9198C21.0515 19.8945 21.035 19.8755 21.0256 19.8629C20.9935 19.8186 20.9916 19.7753 21.0199 19.7331L21.3116 19.306C21.3248 19.2849 21.3465 19.2722 21.3767 19.268C21.4051 19.2638 21.4277 19.2733 21.4447 19.2965L21.4504 19.3028C21.6637 19.5117 21.8931 19.6435 22.1386 19.6983C22.2084 19.7152 22.2783 19.7236 22.3481 19.7236C22.5011 19.7236 22.6356 19.6783 22.7517 19.5876C22.8678 19.4969 22.9259 19.3682 22.9259 19.2016C22.9259 19.1425 22.9117 19.0866 22.8834 19.0339C22.8551 18.9811 22.8234 18.9368 22.7885 18.901C22.7536 18.8651 22.6984 18.8256 22.6228 18.7823C22.5473 18.7391 22.485 18.7053 22.4359 18.6811C22.3868 18.6568 22.3113 18.6225 22.2094 18.5782C22.1357 18.5445 22.0777 18.5181 22.0352 18.4991C21.9927 18.4802 21.9347 18.4522 21.861 18.4153C21.7874 18.3784 21.7284 18.3457 21.684 18.3172C21.6397 18.2887 21.5863 18.2513 21.524 18.2049C21.4617 18.1585 21.4112 18.1137 21.3725 18.0704C21.3338 18.0272 21.2927 17.9755 21.2493 17.9154C21.2059 17.8553 21.1724 17.7941 21.1488 17.7319C21.1252 17.6696 21.1053 17.5995 21.0893 17.5214C21.0732 17.4434 21.0652 17.3611 21.0652 17.2746C21.0652 16.9835 21.1577 16.7283 21.3428 16.5089C21.5278 16.2896 21.7685 16.1482 22.0649 16.0849V15.5154C22.0649 15.488 22.0739 15.4643 22.0918 15.4442C22.1098 15.4242 22.131 15.4142 22.1555 15.4142H22.5379C22.5643 15.4142 22.586 15.4236 22.603 15.4426C22.62 15.4616 22.6285 15.4859 22.6285 15.5154V16.0723C22.7361 16.0849 22.8404 16.1092 22.9414 16.1451C23.0424 16.1809 23.1246 16.2163 23.1878 16.2511C23.2511 16.2859 23.311 16.3254 23.3676 16.3697C23.4243 16.414 23.4611 16.4446 23.4781 16.4615C23.4951 16.4783 23.5092 16.4931 23.5206 16.5058C23.5527 16.5437 23.5574 16.5838 23.5347 16.626L23.3053 17.088C23.2902 17.1196 23.2685 17.1365 23.2402 17.1386C23.2138 17.1449 23.1883 17.1375 23.1637 17.1164C23.1581 17.1101 23.1444 17.0975 23.1227 17.0785C23.101 17.0595 23.0642 17.0315 23.0122 16.9946C22.9603 16.9577 22.9051 16.924 22.8466 16.8934C22.788 16.8628 22.7177 16.8354 22.6356 16.8111C22.5534 16.7868 22.4727 16.7747 22.3934 16.7747C22.2141 16.7747 22.0678 16.8201 21.9545 16.9108C21.8412 17.0015 21.7846 17.1185 21.7846 17.262C21.7846 17.3168 21.7926 17.3675 21.8086 17.4139C21.8247 17.4603 21.8525 17.504 21.8922 17.5452C21.9318 17.5863 21.9691 17.6211 22.004 17.6496C22.039 17.6781 22.0918 17.7108 22.1626 17.7477C22.2334 17.7846 22.2905 17.8131 22.334 17.8331C22.3774 17.8531 22.4435 17.8821 22.5322 17.9201C22.6323 17.9623 22.7087 17.9955 22.7616 18.0198C22.8145 18.044 22.8862 18.081 22.9768 18.1305C23.0675 18.1801 23.1387 18.2249 23.1906 18.265C23.2426 18.3051 23.3011 18.3578 23.3662 18.4232C23.4314 18.4886 23.4814 18.5556 23.5163 18.6241C23.5513 18.6927 23.581 18.7734 23.6055 18.8662C23.6301 18.959 23.6424 19.0581 23.6424 19.1636Z" fill="#010101"/>
</g>
<defs>
<clipPath id="clip0_76_666">
<rect width="24" height="16" fill="white" transform="translate(3 7)"/>
</clipPath>
</defs>
</svg>
