<svg width="235" height="146" viewBox="0 0 235 146" fill="none" xmlns="http://www.w3.org/2000/svg">
<circle cx="130" cy="71" r="70.5" fill="#192322"/>
<circle cx="130" cy="71" r="70.5" fill="url(#paint0_linear_90_2)" fill-opacity="0.2"/>
<circle cx="130" cy="71" r="70.5" stroke="#02F5AE"/>
<circle cx="137" cy="75" r="70.5" fill="#192322"/>
<circle cx="137" cy="75" r="70.5" fill="url(#paint1_linear_90_2)" fill-opacity="0.2"/>
<circle cx="137" cy="75" r="70.5" stroke="#02F5AE"/>
<path d="M0.0137372 32.4166C0.0353616 32.506 0.0817069 32.5874 0.147492 32.6518L6.52154 38.8815C6.5772 38.9375 6.61852 39.0061 6.64199 39.0814C6.66545 39.1567 6.67038 39.2365 6.65634 39.3142L5.14466 48.1108C5.12866 48.2012 5.13837 48.2942 5.17268 48.3793C5.20699 48.4644 5.26453 48.5382 5.33876 48.5923C5.41299 48.6464 5.50092 48.6786 5.59256 48.6852C5.68421 48.6919 5.77589 48.6728 5.85718 48.63L13.7332 44.4864C13.8044 44.4485 13.8837 44.4287 13.9643 44.4287C14.0449 44.4287 14.1243 44.4485 14.1954 44.4864L22.0619 48.6396C22.1432 48.6824 22.2348 48.7015 22.3265 48.6948C22.4181 48.6882 22.5061 48.656 22.5803 48.6019C22.6545 48.5478 22.7121 48.474 22.7464 48.3889C22.7807 48.3038 22.7904 48.2108 22.7744 48.1204L21.282 39.3238C21.2679 39.2462 21.2728 39.1663 21.2963 39.091C21.3198 39.0157 21.3611 38.9471 21.4168 38.8912L27.8004 32.671C27.8654 32.6055 27.911 32.5234 27.9322 32.4337C27.9534 32.344 27.9493 32.2501 27.9204 32.1626C27.8915 32.075 27.8389 31.9972 27.7685 31.9376C27.698 31.878 27.6124 31.839 27.5212 31.825L18.7208 30.5367C18.6418 30.5271 18.5665 30.4973 18.5024 30.4501C18.4383 30.403 18.3875 30.3401 18.3549 30.2675L14.4169 22.2688C14.3759 22.188 14.3132 22.12 14.2359 22.0726C14.1586 22.0251 14.0696 22 13.9788 22C13.888 22 13.799 22.0251 13.7217 22.0726C13.6443 22.12 13.5817 22.188 13.5407 22.2688L9.59302 30.2675C9.55827 30.3385 9.50684 30.4001 9.44314 30.4469C9.37943 30.4938 9.30533 30.5246 9.22714 30.5367L0.426725 31.8154C0.335448 31.8274 0.249401 31.8648 0.178404 31.9234C0.107407 31.9819 0.0543124 32.0592 0.0251969 32.1464C-0.00391863 32.2336 -0.00788713 32.3272 0.0137372 32.4166Z" fill="#044F3A"/>
<path d="M219 101.685C219.011 101.732 219.035 101.776 219.069 101.811L222.554 105.214C222.587 105.244 222.611 105.282 222.624 105.324C222.637 105.366 222.64 105.411 222.631 105.454L221.813 110.261C221.806 110.309 221.813 110.359 221.832 110.403C221.851 110.448 221.882 110.487 221.922 110.516C221.961 110.544 222.008 110.562 222.057 110.566C222.105 110.57 222.154 110.561 222.198 110.54L226.492 108.281C226.531 108.262 226.574 108.252 226.617 108.252C226.661 108.252 226.704 108.262 226.743 108.281L231.037 110.549C231.082 110.572 231.132 110.581 231.181 110.576C231.231 110.572 231.278 110.554 231.318 110.524C231.358 110.494 231.389 110.453 231.407 110.407C231.426 110.361 231.431 110.31 231.422 110.261L230.604 105.454C230.594 105.411 230.596 105.366 230.61 105.324C230.623 105.281 230.648 105.243 230.681 105.214L234.157 101.82C234.19 101.785 234.214 101.742 234.225 101.694C234.236 101.647 234.234 101.597 234.22 101.551C234.205 101.505 234.178 101.463 234.141 101.431C234.105 101.399 234.06 101.377 234.012 101.368L229.198 100.666C229.155 100.657 229.115 100.639 229.08 100.612C229.045 100.586 229.016 100.552 228.996 100.513L226.858 96.148C226.836 96.1035 226.801 96.0661 226.759 96.04C226.716 96.0138 226.667 96 226.617 96C226.568 96 226.519 96.0138 226.476 96.04C226.434 96.0661 226.399 96.1035 226.377 96.148L224.23 100.513C224.211 100.552 224.182 100.585 224.147 100.61C224.112 100.636 224.07 100.652 224.027 100.657L219.213 101.359C219.165 101.368 219.121 101.389 219.084 101.421C219.048 101.454 219.02 101.495 219.006 101.541C218.991 101.588 218.989 101.637 219 101.685Z" fill="#044F3A"/>
<path d="M43 114.685C43.0111 114.732 43.0349 114.776 43.0688 114.811L46.5543 118.214C46.5865 118.244 46.6105 118.282 46.624 118.324C46.6375 118.366 46.64 118.411 46.6313 118.454L45.8129 123.261C45.8062 123.309 45.8128 123.359 45.832 123.403C45.8511 123.448 45.8821 123.487 45.9217 123.516C45.9612 123.544 46.0078 123.562 46.0565 123.566C46.1052 123.57 46.1541 123.561 46.198 123.54L50.4923 121.281C50.5314 121.262 50.5741 121.252 50.6175 121.252C50.6608 121.252 50.7036 121.262 50.7426 121.281L55.0369 123.549C55.0817 123.572 55.1316 123.581 55.1813 123.576C55.231 123.572 55.2785 123.554 55.3184 123.524C55.3583 123.494 55.3892 123.453 55.4075 123.407C55.4258 123.361 55.4308 123.31 55.4221 123.261L54.6037 118.454C54.594 118.411 54.596 118.366 54.6096 118.324C54.6231 118.281 54.6476 118.243 54.6807 118.214L58.1566 114.82C58.1904 114.785 58.2142 114.742 58.2253 114.694C58.2364 114.647 58.2345 114.597 58.2197 114.551C58.2048 114.505 58.1777 114.463 58.1412 114.431C58.1046 114.399 58.06 114.377 58.0121 114.368L53.1979 113.666C53.1549 113.657 53.1145 113.639 53.0796 113.612C53.0446 113.586 53.016 113.552 52.9957 113.513L50.8582 109.148C50.8357 109.103 50.8013 109.066 50.7588 109.04C50.7163 109.014 50.6674 109 50.6175 109C50.5676 109 50.5186 109.014 50.4761 109.04C50.4336 109.066 50.3992 109.103 50.3768 109.148L48.2296 113.513C48.2106 113.552 48.1822 113.585 48.1469 113.61C48.1116 113.636 48.0705 113.652 48.0274 113.657L43.2132 114.359C43.1653 114.368 43.1207 114.389 43.0841 114.421C43.0476 114.454 43.0205 114.495 43.0057 114.541C42.9908 114.588 42.9889 114.637 43 114.685Z" fill="#044F3A"/>
<path d="M124.284 43.1336C106.798 49.7706 105.121 66.6002 100.33 74.4225C95.0606 82.4817 83.5629 86.7484 85.2397 91.0151C86.6769 95.0447 98.4141 90.541 107.516 93.3854C116.858 95.7558 129.075 107.371 146.8 100.497C150.981 98.9262 154.771 96.4832 157.912 93.3337C161.054 90.1842 163.473 86.4021 165.005 82.2447C165.085 82.0737 165.13 81.8887 165.137 81.7004C165.144 81.5121 165.113 81.3242 165.046 81.1478C164.979 80.9714 164.878 80.8098 164.747 80.6726C164.617 80.5354 164.46 80.4252 164.286 80.3484C164.113 80.2692 163.926 80.2248 163.736 80.2178C163.546 80.2107 163.356 80.2412 163.178 80.3073C162.999 80.3735 162.836 80.4741 162.698 80.6032C162.559 80.7323 162.447 80.8874 162.37 81.0595C160.557 84.6375 157.883 87.7196 154.583 90.0344C151.283 92.3491 147.459 93.8255 143.447 94.3336C138.257 94.9963 132.988 94.0248 128.387 91.5571C123.786 89.0893 120.088 85.2505 117.816 80.5854L117.098 78.9262L116.379 77.0299C131.371 70.2183 146.916 64.6678 162.849 60.4373H163.568C163.791 60.3546 164.038 60.3573 164.259 60.445C164.481 60.5327 164.661 60.699 164.765 60.9113V61.6225C165.583 63.3731 166.225 65.1992 166.682 67.0743C166.815 67.2582 166.998 67.4005 167.21 67.4845C167.423 67.5685 167.655 67.5907 167.879 67.5484L174.826 63.7558C182.491 59.015 186.802 54.9854 185.844 52.8521C184.886 50.4817 179.137 50.4817 170.275 52.141L161.172 54.0373L159.256 54.5113C150.05 56.8484 141.008 59.7781 132.188 63.2817C125.721 65.6521 120.691 68.0225 115.421 70.3928C115.365 66.3763 116.321 62.4093 118.203 58.8501C120.085 55.291 122.834 52.252 126.2 50.0076C129.534 47.7642 133.368 46.3548 137.373 45.9007C141.379 45.4465 145.435 45.9611 149.195 47.4002C149.489 47.514 149.812 47.5293 150.115 47.4436C150.418 47.3579 150.684 47.1761 150.872 46.9262C151.051 46.7607 151.184 46.5529 151.258 46.3224C151.333 46.092 151.347 45.8464 151.299 45.6091C151.251 45.3717 151.143 45.1504 150.984 44.9661C150.826 44.7818 150.622 44.6405 150.393 44.5558C146.388 42.4978 141.978 41.3259 137.47 41.1212C132.962 40.9166 128.463 41.6841 124.284 43.3706V43.1336Z" fill="#DCF5E0"/>
<defs>
<linearGradient id="paint0_linear_90_2" x1="130" y1="0" x2="130" y2="142" gradientUnits="userSpaceOnUse">
<stop/>
<stop offset="1" stop-opacity="0"/>
</linearGradient>
<linearGradient id="paint1_linear_90_2" x1="137" y1="4" x2="137" y2="146" gradientUnits="userSpaceOnUse">
<stop/>
<stop offset="1" stop-opacity="0"/>
</linearGradient>
</defs>
</svg>
