<svg width="305" height="80" viewBox="0 0 305 80" fill="none" xmlns="http://www.w3.org/2000/svg">
<mask id="path-1-inside-1_90_4" fill="white">
<path fill-rule="evenodd" clip-rule="evenodd" d="M305 24H0V55.5V56H0.0311258C1.68841 69.3002 69.3165 80 152.5 80C235.684 80 303.312 69.3002 304.969 56H305V55.5V24Z"/>
</mask>
<path fill-rule="evenodd" clip-rule="evenodd" d="M305 24H0V55.5V56H0.0311258C1.68841 69.3002 69.3165 80 152.5 80C235.684 80 303.312 69.3002 304.969 56H305V55.5V24Z" fill="#192322"/>
<path fill-rule="evenodd" clip-rule="evenodd" d="M305 24H0V55.5V56H0.0311258C1.68841 69.3002 69.3165 80 152.5 80C235.684 80 303.312 69.3002 304.969 56H305V55.5V24Z" fill="url(#paint0_linear_90_4)" fill-opacity="0.2"/>
<path d="M0 24V23H-1V24H0ZM305 24H306V23H305V24ZM0 56H-1V57H0V56ZM0.0311258 56L1.02345 55.8764L0.914253 55H0.0311258V56ZM304.969 56V55H304.086L303.977 55.8764L304.969 56ZM305 56V57H306V56H305ZM0 25H305V23H0V25ZM1 55.5V24H-1V55.5H1ZM1 56V55.5H-1V56H1ZM0.0311258 55H0V57H0.0311258V55ZM152.5 79C110.944 79 73.2958 76.3269 45.8489 71.9998C32.1187 69.8351 20.9832 67.2628 13.1987 64.4216C9.30235 62.9995 6.29594 61.5279 4.23152 60.0388C2.14296 58.5323 1.1792 57.1263 1.02345 55.8764L-0.9612 56.1236C-0.702627 58.1988 0.809523 60.0365 3.06152 61.6609C5.33766 63.3027 8.53645 64.849 12.513 66.3004C20.4743 69.2061 31.7556 71.8025 45.5375 73.9754C73.1149 78.3231 110.872 81 152.5 81V79ZM303.977 55.8764C303.821 57.1263 302.857 58.5323 300.768 60.0388C298.704 61.5279 295.698 62.9995 291.801 64.4216C284.017 67.2628 272.881 69.8351 259.151 71.9998C231.704 76.3269 194.056 79 152.5 79V81C194.128 81 231.885 78.3231 259.463 73.9754C273.244 71.8025 284.526 69.2061 292.487 66.3004C296.464 64.849 299.662 63.3027 301.938 61.6609C304.19 60.0365 305.703 58.1988 305.961 56.1236L303.977 55.8764ZM305 55H304.969V57H305V55ZM304 55.5V56H306V55.5H304ZM304 24V55.5H306V24H304Z" fill="#02F5AE" mask="url(#path-1-inside-1_90_4)"/>
<path d="M304.5 24.5C304.5 25.9651 303.576 27.4877 301.593 29.0443C299.619 30.5943 296.676 32.1114 292.838 33.5691C285.168 36.4825 274.04 39.1157 260.254 41.3304C232.691 45.7587 194.594 48.5 152.5 48.5C110.406 48.5 72.3092 45.7587 44.7455 41.3304C30.9597 39.1157 19.8319 36.4825 12.1617 33.5691C8.32397 32.1114 5.38127 30.5943 3.40702 29.0443C1.42427 27.4877 0.5 25.9651 0.5 24.5C0.5 23.0349 1.42427 21.5123 3.40702 19.9557C5.38127 18.4057 8.32397 16.8886 12.1617 15.4309C19.8319 12.5175 30.9597 9.88432 44.7455 7.66955C72.3092 3.2413 110.406 0.5 152.5 0.5C194.594 0.5 232.691 3.2413 260.254 7.66955C274.04 9.88432 285.168 12.5175 292.838 15.4309C296.676 16.8886 299.619 18.4057 301.593 19.9557C303.576 21.5123 304.5 23.0349 304.5 24.5Z" fill="#243E3B"/>
<path d="M304.5 24.5C304.5 25.9651 303.576 27.4877 301.593 29.0443C299.619 30.5943 296.676 32.1114 292.838 33.5691C285.168 36.4825 274.04 39.1157 260.254 41.3304C232.691 45.7587 194.594 48.5 152.5 48.5C110.406 48.5 72.3092 45.7587 44.7455 41.3304C30.9597 39.1157 19.8319 36.4825 12.1617 33.5691C8.32397 32.1114 5.38127 30.5943 3.40702 29.0443C1.42427 27.4877 0.5 25.9651 0.5 24.5C0.5 23.0349 1.42427 21.5123 3.40702 19.9557C5.38127 18.4057 8.32397 16.8886 12.1617 15.4309C19.8319 12.5175 30.9597 9.88432 44.7455 7.66955C72.3092 3.2413 110.406 0.5 152.5 0.5C194.594 0.5 232.691 3.2413 260.254 7.66955C274.04 9.88432 285.168 12.5175 292.838 15.4309C296.676 16.8886 299.619 18.4057 301.593 19.9557C303.576 21.5123 304.5 23.0349 304.5 24.5Z" fill="url(#paint1_linear_90_4)" fill-opacity="0.2"/>
<path d="M304.5 24.5C304.5 25.9651 303.576 27.4877 301.593 29.0443C299.619 30.5943 296.676 32.1114 292.838 33.5691C285.168 36.4825 274.04 39.1157 260.254 41.3304C232.691 45.7587 194.594 48.5 152.5 48.5C110.406 48.5 72.3092 45.7587 44.7455 41.3304C30.9597 39.1157 19.8319 36.4825 12.1617 33.5691C8.32397 32.1114 5.38127 30.5943 3.40702 29.0443C1.42427 27.4877 0.5 25.9651 0.5 24.5C0.5 23.0349 1.42427 21.5123 3.40702 19.9557C5.38127 18.4057 8.32397 16.8886 12.1617 15.4309C19.8319 12.5175 30.9597 9.88432 44.7455 7.66955C72.3092 3.2413 110.406 0.5 152.5 0.5C194.594 0.5 232.691 3.2413 260.254 7.66955C274.04 9.88432 285.168 12.5175 292.838 15.4309C296.676 16.8886 299.619 18.4057 301.593 19.9557C303.576 21.5123 304.5 23.0349 304.5 24.5Z" stroke="#02F5AE"/>
<path d="M280.5 24.5C280.5 25.3621 279.813 26.3441 278.133 27.4023C276.483 28.4415 274.018 29.4622 270.795 30.4443C264.358 32.4062 255.017 34.1797 243.446 35.6714C220.309 38.6538 188.332 40.5 153 40.5C117.668 40.5 85.6906 38.6538 62.5543 35.6714C50.9825 34.1797 41.6421 32.4062 35.2046 30.4443C31.9822 29.4622 29.5167 28.4415 27.867 27.4023C26.1873 26.3441 25.5 25.3621 25.5 24.5C25.5 23.6379 26.1873 22.6559 27.867 21.5977C29.5167 20.5585 31.9822 19.5378 35.2046 18.5557C41.6421 16.5938 50.9825 14.8203 62.5543 13.3286C85.6906 10.3462 117.668 8.5 153 8.5C188.332 8.5 220.309 10.3462 243.446 13.3286C255.017 14.8203 264.358 16.5938 270.795 18.5557C274.018 19.5378 276.483 20.5585 278.133 21.5977C279.813 22.6559 280.5 23.6379 280.5 24.5Z" fill="black"/>
<path d="M280.5 24.5C280.5 25.3621 279.813 26.3441 278.133 27.4023C276.483 28.4415 274.018 29.4622 270.795 30.4443C264.358 32.4062 255.017 34.1797 243.446 35.6714C220.309 38.6538 188.332 40.5 153 40.5C117.668 40.5 85.6906 38.6538 62.5543 35.6714C50.9825 34.1797 41.6421 32.4062 35.2046 30.4443C31.9822 29.4622 29.5167 28.4415 27.867 27.4023C26.1873 26.3441 25.5 25.3621 25.5 24.5C25.5 23.6379 26.1873 22.6559 27.867 21.5977C29.5167 20.5585 31.9822 19.5378 35.2046 18.5557C41.6421 16.5938 50.9825 14.8203 62.5543 13.3286C85.6906 10.3462 117.668 8.5 153 8.5C188.332 8.5 220.309 10.3462 243.446 13.3286C255.017 14.8203 264.358 16.5938 270.795 18.5557C274.018 19.5378 276.483 20.5585 278.133 21.5977C279.813 22.6559 280.5 23.6379 280.5 24.5Z" fill="url(#paint2_linear_90_4)" fill-opacity="0.2"/>
<path d="M280.5 24.5C280.5 25.3621 279.813 26.3441 278.133 27.4023C276.483 28.4415 274.018 29.4622 270.795 30.4443C264.358 32.4062 255.017 34.1797 243.446 35.6714C220.309 38.6538 188.332 40.5 153 40.5C117.668 40.5 85.6906 38.6538 62.5543 35.6714C50.9825 34.1797 41.6421 32.4062 35.2046 30.4443C31.9822 29.4622 29.5167 28.4415 27.867 27.4023C26.1873 26.3441 25.5 25.3621 25.5 24.5C25.5 23.6379 26.1873 22.6559 27.867 21.5977C29.5167 20.5585 31.9822 19.5378 35.2046 18.5557C41.6421 16.5938 50.9825 14.8203 62.5543 13.3286C85.6906 10.3462 117.668 8.5 153 8.5C188.332 8.5 220.309 10.3462 243.446 13.3286C255.017 14.8203 264.358 16.5938 270.795 18.5557C274.018 19.5378 276.483 20.5585 278.133 21.5977C279.813 22.6559 280.5 23.6379 280.5 24.5Z" stroke="#02F5AE"/>
<defs>
<linearGradient id="paint0_linear_90_4" x1="152.5" y1="24" x2="152.5" y2="80" gradientUnits="userSpaceOnUse">
<stop/>
<stop offset="1" stop-opacity="0"/>
</linearGradient>
<linearGradient id="paint1_linear_90_4" x1="152.5" y1="0" x2="152.5" y2="49" gradientUnits="userSpaceOnUse">
<stop/>
<stop offset="1" stop-opacity="0"/>
</linearGradient>
<linearGradient id="paint2_linear_90_4" x1="153" y1="8" x2="153" y2="41" gradientUnits="userSpaceOnUse">
<stop/>
<stop offset="1" stop-opacity="0"/>
</linearGradient>
</defs>
</svg>
