<svg width="337" height="337" viewBox="0 0 337 337" fill="none" xmlns="http://www.w3.org/2000/svg">
<path d="M285.815 166.014V329.449H53.9736C44.1674 329.449 36.1846 321.466 36.1846 311.66V148.671C36.1846 153.452 38.1296 157.788 41.2899 160.908C44.4104 164.069 48.7059 166.014 53.5275 166.014H285.815Z" fill="white"/>
<path d="M285.815 131.287V165.973H53.5275C48.7461 165.973 44.4104 164.028 41.2899 160.908C38.1296 157.748 36.1846 153.452 36.1846 148.63C36.1846 139.067 43.9647 131.287 53.5275 131.287H285.815Z" fill="#C9FFEF"/>
<path d="M294.73 222.133V273.308H250.586C236.455 273.308 224.999 261.852 224.999 247.72C224.999 233.589 236.455 222.133 250.586 222.133H294.73Z" fill="white"/>
<path d="M260.861 247.74C260.861 253.283 256.33 257.77 250.787 257.77C245.244 257.77 240.712 253.283 240.712 247.74C240.712 242.153 245.244 237.666 250.787 237.666C256.33 237.666 260.861 242.153 260.861 247.74Z" fill="#02F5AE"/>
<path d="M168.484 148.627C191.216 148.627 209.644 130.199 209.644 107.468C209.644 84.7362 191.216 66.3086 168.484 66.3086C145.753 66.3086 127.325 84.7362 127.325 107.468C127.325 130.199 145.753 148.627 168.484 148.627Z" fill="white"/>
<path d="M328.566 136.907C320.635 98.5815 299.585 63.9253 269.293 39.3238C268.215 38.4471 266.626 38.6116 265.754 39.6895C264.88 40.7679 265.042 42.3518 266.12 43.2285C295.515 67.1007 315.945 100.731 323.639 137.929C323.932 139.347 325.348 140.172 326.611 139.879C327.972 139.599 328.846 138.268 328.566 136.907ZM137.281 10.0139C138.649 9.77345 139.563 8.46921 139.32 7.10109C139.079 5.73348 137.773 4.79994 136.407 5.063C77.9914 15.3682 28.9947 56.4369 8.53675 112.244C8.0574 113.548 8.72788 114.992 10.0321 115.469C11.3137 115.944 12.7734 115.294 13.2568 113.973C32.8018 60.666 81.4842 19.8603 137.281 10.0139Z" fill="#02F5AE"/>
<path d="M165.462 23.0479C84.683 23.0479 18.9932 88.7377 18.9932 169.517C18.9932 192.453 24.2745 214.132 33.6803 233.446V311.661C33.6803 322.877 42.7844 331.981 53.9506 331.981H285.827C287.185 331.981 288.342 330.824 288.342 329.466V275.798H294.73C296.138 275.798 297.245 274.691 297.245 273.283V233.446C306.65 214.132 311.932 192.453 311.932 169.517C311.932 88.7377 246.242 23.0479 165.462 23.0479ZM283.312 326.951H53.9506C45.5508 326.951 38.7102 320.06 38.7102 311.661C38.7102 291.481 38.7102 252.39 38.7102 232.239V161.821C41.9459 165.705 47.4581 168.511 53.5482 168.511H283.312V219.614H250.568C235.076 219.614 222.501 232.239 222.501 247.731C222.501 263.223 235.076 275.798 250.568 275.798C251.344 275.798 283.959 275.798 283.312 275.798V326.951ZM283.312 146.156H188.737C194.455 143.141 199.422 138.924 203.337 133.805H283.312V146.156ZM168.48 146.128C147.145 146.128 129.851 128.704 129.851 107.449C129.851 86.1725 147.154 68.8195 168.48 68.8195C189.807 68.8195 207.11 86.1725 207.11 107.449C207.11 128.697 189.822 146.128 168.48 146.128ZM148.224 146.156H72.046C70.6562 146.156 69.531 147.282 69.531 148.671C69.531 150.062 70.6562 151.186 72.046 151.186H283.312V163.481H53.5482C34.6375 163.481 33.374 133.805 53.5482 133.805H133.623C137.538 138.924 142.506 143.141 148.224 146.156ZM292.215 270.768C286.371 270.768 256.574 270.768 250.568 270.768C237.842 270.768 227.531 260.457 227.531 247.731C227.531 235.006 237.842 224.644 250.568 224.644C251.516 224.644 293.337 224.644 292.215 224.644C292.215 248.301 292.215 247.289 292.215 270.768ZM297.094 221.224C296.742 220.268 295.836 219.614 294.73 219.614H288.342C288.342 188.294 288.342 162.514 288.342 131.29C288.342 129.882 287.185 128.775 285.827 128.775H206.556C210.128 122.438 212.139 115.195 212.139 107.449C212.139 83.406 192.573 63.7896 168.48 63.7896C144.387 63.7896 124.821 83.406 124.821 107.449C124.821 115.195 126.833 122.438 130.404 128.775H53.5482C42.5832 128.775 33.6803 137.678 33.6803 148.643V148.694V220.771C27.4433 204.877 24.023 187.574 24.023 169.517C24.023 91.5041 87.4494 28.0777 165.462 28.0777C243.475 28.0777 306.902 91.5041 306.902 169.517C306.902 187.775 303.431 205.229 297.094 221.224Z" fill="#02F5AE"/>
<path d="M57.4208 179.728L52.4915 179.677C51.7873 179.677 51.1334 179.929 50.6305 180.381C50.1778 180.884 49.876 181.538 49.876 182.192V187.222C49.876 188.63 50.9825 189.737 52.3909 189.737C53.7993 189.737 54.9058 188.63 54.9058 187.222V184.757H57.4208C58.8291 184.757 59.9357 183.6 59.9357 182.242C59.9357 180.834 58.8291 179.728 57.4208 179.728ZM201.928 179.728H192.321C190.913 179.728 189.806 180.834 189.806 182.242C189.806 183.6 190.913 184.757 192.321 184.757H201.928C203.337 184.757 204.443 183.6 204.443 182.242C204.443 180.834 203.337 179.728 201.928 179.728ZM129.7 179.728H120.042C118.634 179.728 117.527 180.834 117.527 182.242C117.527 183.6 118.634 184.757 120.042 184.757H129.7C131.058 184.757 132.215 183.6 132.215 182.242C132.215 180.834 131.058 179.728 129.7 179.728ZM177.835 179.728H168.228C166.82 179.728 165.713 180.834 165.713 182.242C165.713 183.6 166.82 184.757 168.228 184.757H177.835C179.244 184.757 180.35 183.6 180.35 182.242C180.35 180.834 179.244 179.728 177.835 179.728ZM105.607 179.728H95.9494C94.5913 179.728 93.4345 180.834 93.4345 182.242C93.4345 183.6 94.5913 184.757 95.9494 184.757H105.607C106.965 184.757 108.122 183.6 108.122 182.242C108.122 180.834 106.965 179.728 105.607 179.728ZM240.507 184.757H250.114C251.523 184.757 252.629 183.6 252.629 182.242C252.629 180.834 251.523 179.728 250.114 179.728H240.507C239.099 179.728 237.992 180.834 237.992 182.242C237.992 183.6 239.099 184.757 240.507 184.757ZM153.793 179.728H144.135C142.727 179.728 141.62 180.834 141.62 182.242C141.62 183.6 142.727 184.757 144.135 184.757H153.793C155.151 184.757 156.308 183.6 156.308 182.242C156.308 180.834 155.151 179.728 153.793 179.728ZM216.414 184.757H226.021C227.43 184.757 228.536 183.6 228.536 182.242C228.536 180.834 227.43 179.728 226.021 179.728H216.414C215.006 179.728 213.899 180.834 213.899 182.242C213.899 183.6 215.006 184.757 216.414 184.757ZM81.5137 179.728H71.8564C70.4984 179.728 69.3415 180.834 69.3415 182.242C69.3415 183.6 70.4984 184.757 71.8564 184.757H81.5137C82.9221 184.757 84.0287 183.6 84.0287 182.242C84.0287 180.834 82.9221 179.728 81.5137 179.728ZM264.55 184.757H267.065V187.272C267.065 188.63 268.222 189.787 269.58 189.787C270.988 189.787 272.095 188.63 272.095 187.272V182.242C272.095 180.834 270.988 179.728 269.58 179.728H264.55C263.192 179.728 262.035 180.834 262.035 182.242C262.035 183.6 263.192 184.757 264.55 184.757ZM269.58 200.501C268.222 200.501 267.065 201.658 267.065 203.016V213.528C267.065 214.936 268.222 216.043 269.58 216.043C270.988 216.043 272.095 214.936 272.095 213.528V203.016C272.095 201.658 270.988 200.501 269.58 200.501ZM269.58 294.961C270.988 294.961 272.095 293.805 272.095 292.446V281.934C272.095 280.526 270.988 279.419 269.58 279.419C268.222 279.419 267.065 280.526 267.065 281.934V292.446C267.065 293.805 268.222 294.961 269.58 294.961ZM262.035 313.22C262.035 314.628 263.192 315.735 264.55 315.735H269.58C270.988 315.735 272.095 314.628 272.095 313.22V308.19C272.095 306.832 270.988 305.675 269.58 305.675C268.222 305.675 267.065 306.832 267.065 308.19V310.705H264.55C263.192 310.705 262.035 311.862 262.035 313.22ZM52.3909 199.595C50.9825 199.595 49.876 200.752 49.876 202.11V212.069C49.876 213.428 50.9825 214.584 52.3909 214.584C53.7993 214.584 54.9058 213.428 54.9058 212.069V202.11C54.9058 200.752 53.7993 199.595 52.3909 199.595ZM52.3909 249.24C51.234 249.24 50.2784 249.995 49.9766 251.051C49.9263 251.252 49.876 251.503 49.876 251.755V259.249V261.714C49.876 263.072 50.9825 264.229 52.3909 264.229C52.8436 264.229 53.246 264.128 53.5981 263.877C54.4028 263.475 54.9058 262.67 54.9058 261.714V257.59V251.755C54.9058 250.397 53.7993 249.24 52.3909 249.24ZM75.9809 310.705H66.0721C64.6637 310.705 63.5572 311.862 63.5572 313.22C63.5572 314.628 64.6637 315.735 66.0721 315.735H75.9809C77.3893 315.735 78.4958 314.628 78.4958 313.22C78.4958 311.862 77.3893 310.705 75.9809 310.705ZM52.3909 274.088C50.9825 274.088 49.876 275.194 49.876 276.602V286.511C49.876 287.92 50.9825 289.026 52.3909 289.026C53.7993 289.026 54.9058 287.92 54.9058 286.511V276.602C54.9058 275.194 53.7993 274.088 52.3909 274.088ZM52.3909 298.885C50.9825 298.885 49.876 299.991 49.876 301.4V311.308C49.876 312.717 50.9825 313.823 52.3909 313.823C53.7993 313.823 54.9058 312.717 54.9058 311.308V301.4C54.9058 299.991 53.7993 298.885 52.3909 298.885ZM52.3909 224.443C50.9825 224.443 49.876 225.549 49.876 226.958V236.867C49.876 238.275 50.9825 239.382 52.3909 239.382C53.7993 239.382 54.9058 238.275 54.9058 236.867V226.958C54.9058 225.549 53.7993 224.443 52.3909 224.443ZM249.662 310.705H239.753C238.395 310.705 237.238 311.862 237.238 313.22C237.238 314.628 238.395 315.735 239.753 315.735H249.662C251.07 315.735 252.176 314.628 252.176 313.22C252.176 311.862 251.07 310.705 249.662 310.705ZM125.626 310.705H115.666C114.308 310.705 113.151 311.862 113.151 313.22C113.151 314.628 114.308 315.735 115.666 315.735H125.626C126.984 315.735 128.14 314.628 128.14 313.22C128.14 311.862 126.984 310.705 125.626 310.705ZM224.864 310.705H214.956C213.547 310.705 212.441 311.862 212.441 313.22C212.441 314.628 213.547 315.735 214.956 315.735H224.864C226.273 315.735 227.379 314.628 227.379 313.22C227.379 311.862 226.273 310.705 224.864 310.705ZM100.778 310.705H90.8692C89.4609 310.705 88.3543 311.862 88.3543 313.22C88.3543 314.628 89.4609 315.735 90.8692 315.735H100.778C102.186 315.735 103.293 314.628 103.293 313.22C103.293 311.862 102.186 310.705 100.778 310.705ZM150.423 310.705H140.514C139.106 310.705 137.999 311.862 137.999 313.22C137.999 313.27 137.999 313.27 137.999 313.32C138.049 314.678 139.156 315.735 140.514 315.735H150.423C150.976 315.735 151.479 315.584 151.881 315.282C152.535 314.829 152.938 314.075 152.938 313.22C152.938 311.862 151.831 310.705 150.423 310.705ZM175.22 310.705H172.755H165.311C165.009 310.705 164.707 310.755 164.406 310.856C163.45 311.258 162.796 312.163 162.796 313.22C162.796 314.628 163.903 315.735 165.311 315.735H173.007H175.22C175.622 315.735 175.974 315.634 176.326 315.483C177.181 315.081 177.735 314.226 177.735 313.22C177.735 311.862 176.628 310.705 175.22 310.705ZM200.067 310.705H190.108C188.75 310.705 187.593 311.862 187.593 313.22C187.593 313.572 187.644 313.924 187.794 314.226C188.197 315.131 189.102 315.735 190.108 315.735H200.067C201.425 315.735 202.582 314.628 202.582 313.22C202.582 312.516 202.23 311.811 201.727 311.359C201.274 310.956 200.721 310.705 200.067 310.705ZM250.768 235.156C243.827 235.156 238.194 240.79 238.194 247.731C238.194 254.672 243.827 260.306 250.768 260.306C257.709 260.306 263.393 254.672 263.393 247.731C263.393 240.79 257.709 235.156 250.768 235.156ZM250.768 255.276C246.644 255.276 243.223 251.906 243.223 247.731C243.223 243.556 246.644 240.186 250.768 240.186C254.943 240.186 258.363 243.556 258.363 247.731C258.363 251.906 254.943 255.276 250.768 255.276ZM168.485 93.0556C171.749 93.0556 174.403 95.7104 174.403 98.9748C174.403 100.365 175.528 101.49 176.918 101.49C178.309 101.49 179.433 100.365 179.433 98.9748C179.433 93.8066 175.823 89.4885 171 88.3452V86.4344C171 85.0441 169.875 83.9194 168.485 83.9194C167.095 83.9194 165.97 85.0441 165.97 86.4344V88.3452C161.146 89.4885 157.536 93.8066 157.536 98.9748C157.536 104.662 161.911 109.294 167.463 109.818C167.776 109.957 168.119 110.043 168.485 110.043C171.749 110.043 174.403 112.699 174.403 115.963C174.403 119.226 171.749 121.882 168.485 121.882C165.22 121.882 162.566 119.226 162.566 115.963C162.566 114.572 161.441 113.448 160.051 113.448C158.661 113.448 157.536 114.572 157.536 115.963C157.536 121.129 161.144 125.445 165.965 126.59V128.524C165.965 128.624 165.965 128.675 166.015 128.775C166.116 130.033 167.172 131.039 168.48 131.039C169.788 131.039 170.844 130.033 170.995 128.775V126.593C175.82 125.452 179.433 121.132 179.433 115.963C179.433 110.276 175.059 105.642 169.506 105.117C169.193 104.977 168.851 104.891 168.485 104.891C165.22 104.891 162.566 102.236 162.566 98.9748C162.566 95.7104 165.22 93.0556 168.485 93.0556ZM192.838 103.213C190.487 103.213 188.583 105.118 188.583 107.468C188.583 109.818 190.487 111.723 192.838 111.723C195.147 111.723 197.052 109.818 197.052 107.468C197.052 105.118 195.147 103.213 192.838 103.213Z" fill="black"/>
<path d="M144.17 111.723C146.52 111.723 148.426 109.818 148.426 107.468C148.426 105.118 146.52 103.212 144.17 103.212C141.82 103.212 139.915 105.118 139.915 107.468C139.915 109.818 141.82 111.723 144.17 111.723Z" fill="black"/>
<path d="M21.4944 292.4C20.1047 292.4 18.9795 293.526 18.9795 294.915V304.99C18.9795 306.38 20.1047 307.505 21.4944 307.505C22.8847 307.505 24.0093 306.38 24.0093 304.99V294.915C24.0093 293.526 22.8847 292.4 21.4944 292.4ZM21.4944 243.659C20.1047 243.659 18.9795 244.784 18.9795 246.174V278.126C18.9795 279.516 20.1047 280.641 21.4944 280.641C22.8847 280.641 24.0093 279.516 24.0093 278.126V246.174C24.0093 244.784 22.8847 243.659 21.4944 243.659ZM301.816 284.493C300.425 284.493 299.301 285.617 299.301 287.007V318.955C299.301 320.345 300.425 321.469 301.816 321.469C303.205 321.469 304.33 320.345 304.33 318.955V287.007C304.33 285.617 303.205 284.493 301.816 284.493Z" fill="#02F5AE"/>
</svg>
